<?xml version="1.0" encoding="UTF-8" standalone="no"?>
<svg
   xmlns:dc="http://purl.org/dc/elements/1.1/"
   xmlns:cc="http://creativecommons.org/ns#"
   xmlns:rdf="http://www.w3.org/1999/02/22-rdf-syntax-ns#"
   xmlns:svg="http://www.w3.org/2000/svg"
   xmlns="http://www.w3.org/2000/svg"
   xmlns:xlink="http://www.w3.org/1999/xlink"
   version="1.1"
   width="572.85712"
   height="572.85712"
   id="svg2">
  <defs
     id="defs4">
    <pattern
       xlink:href="#Strips1_1"
       id="pattern5590"
       patternTransform="matrix(83.445072,83.039461,-193.04237,193.9853,0,0)" />
    <pattern
       id="Strips1_1"
       patternTransform="translate(0,0) scale(10,10)"
       height="1"
       width="2"
       patternUnits="userSpaceOnUse">
      <rect
         id="rect4875"
         height="2"
         width="1"
         y="-0.5"
         x="0"
         style="fill:black;fill-opacity:0.25;stroke:none" />
    </pattern>
    <linearGradient
       id="linearGradient3759">
      <stop
         id="stop3761"
         style="stop-color:#b90700;stop-opacity:1"
         offset="0" />
      <stop
         id="stop3763"
         style="stop-color:#750501;stop-opacity:1"
         offset="1" />
    </linearGradient>
    <linearGradient
       x1="310.92856"
       y1="65.319595"
       x2="304.5"
       y2="905.31958"
       id="linearGradient3765"
       xlink:href="#linearGradient3759"
       gradientUnits="userSpaceOnUse"
       gradientTransform="translate(-32.714283,-104.60532)" />
  </defs>
  <metadata
     id="metadata7">
    <rdf:RDF>
      <cc:Work
         rdf:about="">
        <dc:format>image/svg+xml</dc:format>
        <dc:type
           rdf:resource="http://purl.org/dc/dcmitype/StillImage" />
        <dc:title></dc:title>
      </cc:Work>
    </rdf:RDF>
  </metadata>
  <rect
     style="fill:url(#linearGradient3765);fill-opacity:1;stroke-width:1.20000005;stroke-miterlimit:4;stroke-dasharray:none"
     id="rect3754"
     y="3.7915038e-006"
     x="-1.0498049e-008"
     height="572.85712"
     width="572.85712" />
  <rect
     style="fill:url(#pattern5590);fill-opacity:1;stroke-width:1.20000005;stroke-miterlimit:4;stroke-dasharray:none"
     id="rect3755"
     y="3.7915038e-006"
     x="-1.0498049e-008"
     height="572.85712"
     width="572.85712" />
  <path
     style="fill:#ffffff;fill-opacity:1;stroke:#000000;stroke-width:0;stroke-linecap:butt;stroke-linejoin:miter;stroke-miterlimit:4;stroke-dasharray:none;stroke-opacity:1"
     id="path2985"
     d="m 107.29353,458.28123 0,78.63571 c 113.99938,1.13192 161.42214,-113.5683 221.33842,-213.86505 l 101.93635,0 -0.21214,-72.18922 c 0,0 2.87522,0.66083 -73.26935,0 20.94,-46.23921 55.1708,-135.55114 109.52699,-137.67827 l -0.061,-77.437722 C 364.61177,36.522534 314.14311,152.35852 263.7002,250.86267 c -99.13507,-0.0582 -84.52015,0 -84.52015,0 l 0,71.4029 c 0,0 -3.48834,0.0789 57.05704,0 -38.31321,71.37765 -83.81256,134.99693 -128.94353,136.01565 z" />
</svg>
