<?xml version="1.0" encoding="UTF-8" standalone="no"?>
<svg
   xmlns:dc="http://purl.org/dc/elements/1.1/"
   xmlns:cc="http://creativecommons.org/ns#"
   xmlns:rdf="http://www.w3.org/1999/02/22-rdf-syntax-ns#"
   xmlns:svg="http://www.w3.org/2000/svg"
   xmlns="http://www.w3.org/2000/svg"
   xmlns:xlink="http://www.w3.org/1999/xlink"
   id="svg2"
   width="16"
   height="16"
   viewBox="0 0 572.85712 572.85712"
   version="1.1">
  <defs
     id="defs4">
    <linearGradient
       id="linearGradient3759">
      <stop
         offset="0"
         style="stop-color:#b90700;stop-opacity:1"
         id="stop3761" />
      <stop
         offset="0.35441703"
         style="stop-color:#96100b;stop-opacity:1"
         id="stop3766" />
      <stop
         offset="0.60251075"
         style="stop-color:#572727;stop-opacity:1"
         id="stop3764" />
      <stop
         offset="1"
         style="stop-color:#2e2e2e;stop-opacity:1"
         id="stop3763" />
    </linearGradient>
    <linearGradient
       gradientTransform="translate(-32.714283,-104.60532)"
       gradientUnits="userSpaceOnUse"
       xlink:href="#linearGradient3759"
       id="linearGradient3765"
       y2="678.74811"
       x2="32.187435"
       y1="103.47048"
       x1="606.82129" />
  </defs>
  <metadata
     id="metadata7">
    <rdf:RDF>
      <cc:Work
         rdf:about="">
        <dc:format>image/svg+xml</dc:format>
        <dc:type
           rdf:resource="http://purl.org/dc/dcmitype/StillImage" />
        <dc:title></dc:title>
      </cc:Work>
    </rdf:RDF>
  </metadata>
  <rect
     width="572.85712"
     height="572.85712"
     x="-1.0498049e-008"
     y="3.7915038e-006"
     id="rect3755"
     style="fill:url(#linearGradient3765);fill-opacity:1;stroke-width:1.20000005;stroke-miterlimit:4;stroke-dasharray:none" />
  <path
     style="fill:#ffffff;fill-opacity:1;stroke:#000000;stroke-width:0;stroke-linecap:butt;stroke-linejoin:miter;stroke-miterlimit:4;stroke-dasharray:none;stroke-opacity:1"
     id="path2985"
     d="m 107.29353,458.28123 0,78.63571 c 113.99938,1.13192 161.42214,-113.5683 221.33842,-213.86505 l 101.93635,0 -0.21214,-72.18922 c 0,0 2.87522,0.66083 -73.26935,0 20.94,-46.23921 55.1708,-135.55114 109.52699,-137.67827 l -0.061,-77.437722 C 364.61177,36.522534 314.14311,152.35852 263.7002,250.86267 c -99.13507,-0.0582 -84.52015,0 -84.52015,0 l 0,71.4029 c 0,0 -3.48834,0.0789 57.05704,0 -38.31321,71.37765 -83.81256,134.99693 -128.94353,136.01565 z" />
</svg>
