<?xml version="1.0" encoding="UTF-8" standalone="no"?>
<!-- Created with Inkscape (http://www.inkscape.org/) -->

<svg
   xmlns:dc="http://purl.org/dc/elements/1.1/"
   xmlns:cc="http://creativecommons.org/ns#"
   xmlns:rdf="http://www.w3.org/1999/02/22-rdf-syntax-ns#"
   xmlns:svg="http://www.w3.org/2000/svg"
   xmlns="http://www.w3.org/2000/svg"
   xmlns:xlink="http://www.w3.org/1999/xlink"
   version="1.1"
   width="572.85712"
   height="572.85712"
   id="svg2">
  <defs
     id="defs4">
    <linearGradient
       id="linearGradient3759">
      <stop
         id="stop3761"
         style="stop-color:#b90700;stop-opacity:1"
         offset="0" />
      <stop
         id="stop3766"
         style="stop-color:#96100b;stop-opacity:1"
         offset="0.35441703" />
      <stop
         id="stop3764"
         style="stop-color:#572727;stop-opacity:1"
         offset="0.60251075" />
      <stop
         id="stop3763"
         style="stop-color:#2e2e2e;stop-opacity:1"
         offset="1" />
    </linearGradient>
    <linearGradient
       x1="606.82129"
       y1="103.47048"
       x2="32.187435"
       y2="678.74811"
       id="linearGradient3765"
       xlink:href="#linearGradient3759"
       gradientUnits="userSpaceOnUse" />
  </defs>
  <metadata
     id="metadata7">
    <rdf:RDF>
      <cc:Work
         rdf:about="">
        <dc:format>image/svg+xml</dc:format>
        <dc:type
           rdf:resource="http://purl.org/dc/dcmitype/StillImage" />
        <dc:title></dc:title>
      </cc:Work>
    </rdf:RDF>
  </metadata>
  <g
     transform="translate(-32.714283,-104.60532)"
     id="layer1">
    <rect
       width="572.85712"
       height="572.85712"
       x="32.714283"
       y="104.60532"
       id="rect3755"
       style="fill:url(#linearGradient3765);fill-opacity:1;stroke-width:1.20000005;stroke-miterlimit:4;stroke-dasharray:none" />
    <path
       d="m 123.37177,577.34502 0,95.30265 c 123.987,1.27458 185.738,-113.40491 241.66354,-227.70907 l 127.34357,0 -1.16411,-90.97907 c 0,0 -10.24072,0.74411 -93.05641,0 36.63471,-67.09999 57.82916,-155.57053 116.94756,-157.96574 l -0.0663,-87.19748 c -110.87225,0.87364 -167.93776,134.24424 -222.80003,245.16322 -107.82042,-0.0655 -102.80118,0 -102.80118,0 l 0,90.97907 c 0,0 -3.79396,0.0888 62.05588,0 -41.66988,80.37363 -79.03754,131.25929 -128.12249,132.40641 z"
       id="path2985"
       style="fill:#ffffff;fill-opacity:1;stroke:#000000;stroke-width:0;stroke-linecap:butt;stroke-linejoin:miter;stroke-miterlimit:4;stroke-opacity:1;stroke-dasharray:none" />
  </g>
</svg>
